<svg width="256" height="256" viewBox="0 0 200 200" fill="none" xmlns="http://www.w3.org/2000/svg">
  <defs>
    <linearGradient id="latotex-stripe" x1="24" y1="24" x2="176" y2="176" gradientUnits="userSpaceOnUse">
      <stop offset="0%" stop-color="#1E4DB7" />
      <stop offset="45%" stop-color="#1E4DB7" />
      <stop offset="50%" stop-color="#FFFFFF" />
      <stop offset="55%" stop-color="#1E4DB7" />
      <stop offset="100%" stop-color="#1E4DB7" />
    </linearGradient>
    <filter id="latotex-shadow" x="40" y="36" width="128" height="130" filterUnits="userSpaceOnUse">
      <feDropShadow dx="0" dy="3" stdDeviation="2.5" flood-color="#0F172A" flood-opacity="0.22" />
    </filter>
  </defs>

  <rect width="200" height="200" rx="44" fill="#F8FAFC" />
  <circle cx="100" cy="100" r="74" stroke="url(#latotex-stripe)" stroke-width="8" />

  <g filter="url(#latotex-shadow)">
    <path
      d="M79 52C74.2 52 70 55.2 70 61.2V129C70 142.6 82.8 149 95 149H123.8C129 149 133 145 133 139.8C133 134.8 129.2 130.8 124.2 130.8H96.4C90.2 130.8 88 127.8 88 123V61.2C88 55.2 83.8 52 79 52Z"
      fill="url(#latotex-stripe)"
    />
    <path
      d="M88 79.6C82.8 79.6 79 83.4 79 88.2C79 93.2 83 97 88 97H147.4C152.4 97 156.2 93.2 156.2 88.2C156.2 83.4 152.2 79.6 147 79.6H88Z"
      fill="url(#latotex-stripe)"
    />
    <path
      d="M123.2 88.2C123.2 83.2 127.2 79.4 132.2 79.4C137.2 79.4 141.2 83.2 141.2 88.2V139.6C141.2 144.6 137.2 148.6 132.2 148.6C127.2 148.6 123.2 144.6 123.2 139.6V88.2Z"
      fill="url(#latotex-stripe)"
    />
  </g>
</svg>
